<svg xmlns="http://www.w3.org/2000/svg" xmlns:xlink="http://www.w3.org/1999/xlink" width="588.36" height="588.36" viewBox="0 0 588.36 588.36"><defs><style>.a{fill:url(#a);}</style><linearGradient id="a" x1="-0.392" x2="1.388" y2="1" gradientUnits="objectBoundingBox"><stop offset="0"/><stop offset="1" stop-color="#00adee"/></linearGradient></defs><path class="a" d="M294.18,0C131.719,0,0,131.719,0,294.18S131.719,588.36,294.18,588.36,588.36,456.641,588.36,294.18,456.641,0,294.18,0Zm0,539.33c-116.152,0-213.526-81.316-238.654-189.967l91.98,38.685a66.114,66.114,0,0,0,130.959-12.527l.147-.074,75.678-56.409a85.977,85.977,0,1,0-84.969-87.592l-55.477,77.615A65.1,65.1,0,0,0,176.214,319.8l-125.59-52.83C64.229,144.54,168.222,49.03,294.18,49.03,429.356,49.03,539.33,159,539.33,294.18S429.356,539.33,294.18,539.33ZM226.69,340.979l-32.409-13.606a50.516,50.516,0,0,1,18.092-3.359,51.1,51.1,0,1,1-46.824,71.608l32.458,13.63a37.027,37.027,0,0,0,28.683-68.274Zm70.137-107.89a58.444,58.444,0,1,1,58.444,58.468A58.5,58.5,0,0,1,296.828,233.089Zm58.444,44.151A44.139,44.139,0,1,1,399.4,233.113,44.188,44.188,0,0,1,355.271,277.24Z"/></svg>